<?xml version="1.0" standalone="no"?><!DOCTYPE svg PUBLIC "-//W3C//DTD SVG 1.1//EN" "http://www.w3.org/Graphics/SVG/1.1/DTD/svg11.dtd"><svg t="1695028507814" class="icon" viewBox="0 0 1024 1024" version="1.1" xmlns="http://www.w3.org/2000/svg" p-id="1841" width="32" height="32" xmlns:xlink="http://www.w3.org/1999/xlink"><path d="M323 57.9h398v234H323v-234z" fill="#00C2FF" p-id="1842"></path><path d="M912.2 1014.9H131.4c-54 0-98-43.8-98-97.6v-69.6c0-121.1 81.9-226.6 199.3-256.7 0.3-0.1 0.5-0.1 0.8-0.2l110.7-25.6c-14-13.2-26.7-28-37.6-44.1-29.1-43-44.5-93.2-44.5-145.3V125.6c0-57.4 46.7-104.1 104.1-104.1h311c57.4 0 104.1 46.7 104.1 104.1v250.2c0 50.4-14.5 99.2-42 141.3-10.9 16.7-23.5 31.9-37.7 45.5L810.5 591C928 621.1 1010 726.6 1010 847.7v69.6c0.1 53.8-43.8 97.6-97.8 97.6zM250.4 661.7c-84.9 21.9-144.1 98.4-144.1 186v69.6c0 13.7 11.3 24.8 25.1 24.8h780.7c13.9 0 25.1-11.1 25.1-24.8v-69.6c0-87.8-59.6-164.3-144.8-186.1h-0.2L609 613.7c-14.2-2.6-25.7-13.5-28.9-28-3.7-16.7 4.7-33.7 20.2-40.9 65.7-30.5 108.2-96.9 108.2-169.1V125.6c0-17-14.3-31.3-31.3-31.3h-311c-17.3 0-31.3 14-31.3 31.3v250.2c0 75.3 44.9 142.8 114.3 172.2 14.5 6.1 23.5 21 22.1 36.7-1.4 15.7-12.7 28.8-28.1 32.3l-192.8 44.7z" fill="#27282A" p-id="1843"></path><path d="M682.7 863.4l-72.6-5.2 4.4-61.2c3-42.9 36.4-78 79.4-83.4 20.8-2.6 42.1 2 59.8 13.2 17.7 11.1 31.2 28.2 37.9 48.1l20 59.4-69 23.3-20-59.4c-2.8-8.3-10.9-13.4-19.5-12.3-8.7 1.1-15.4 8-16 16.3l-4.4 61.2zM369 890.1c-2.5 0-4.9-0.1-7.4-0.3h-0.4c-56.1-4.5-98.5-53.6-94.6-109.5v-0.3c2.2-27.2 14.8-52 35.5-69.9 20.7-17.8 47.1-26.6 74.4-24.7h0.4c56.4 4.5 98.6 53.8 94.2 110-2 27.3-14.5 52.1-35.2 69.9-18.8 16.2-42.3 24.8-66.9 24.8z m-2.2-72.9c8 0.5 15.6-2 21.6-7.1 5.9-5.1 9.5-12.1 10-19.9v-0.4c0.6-7.8-1.9-15.5-7-21.4-5.1-6-12.3-9.7-20.2-10.3-16.3-1-30.6 11.3-32 27.6-1 16 11.3 30.1 27.6 31.5z" fill="#27282A" p-id="1844"></path><path d="M338.03 708.753l9.105-121.26 72.596 5.451-9.105 121.26zM638.557 593.345l72.233-9.05 20.385 162.721-72.232 9.05z" fill="#27282A" p-id="1845"></path></svg>